<svg xmlns="http://www.w3.org/2000/svg" id="Layer_1" class="header-logo-svg" data-name="Layer 1" viewBox="0 0 566.93 566.93"><defs><style>.cls-2{fill:#fff}</style></defs><circle cx="283.46" cy="283.46" r="280.63" style="fill:#1e1e1e"/><path d="m170.35 139.55 9.51-5.76c3.78 5.06 10.37 6.18 16.21 2.64 4.92-3 7.55-7.36 5.37-11-1.91-3.14-5.67-2.84-12.34-.68l-8 2.62c-9.35 3.06-16.26 1.42-20.07-4.87-4.73-7.81-.51-18 9.26-23.91 11.81-7.15 21.79-4.59 27.3 2.73l-9.51 5.76c-3.84-5-9.58-3.24-13.25-1-4.53 2.75-6.75 6.78-4.84 9.93 1.67 2.75 4.76 2.23 11.49 0l8-2.62c10-3.25 16.94-.76 20.83 5.67 5 8.26.13 18.84-10.1 25-12.13 7.43-24.28 2.78-29.86-4.51ZM249.55 79l8.31 43.37-10.54 2L239 81l-16.18 3.11-1.65-8.59 42.92-8.23 1.64 8.59ZM342.13 101.48c-2.67 14.87-15 25-29.87 22.28s-22.9-16.43-20.26-31.29 15-25 29.87-22.28 22.94 16.43 20.26 31.29Zm-39.23-7c-2.07 11.46 2.76 19.26 10.91 20.73s15.39-4.21 17.46-15.68-2.77-19.27-10.92-20.74S305 83 302.9 94.43ZM384.1 91.49l15.9 10.14c11.57 7.39 15.27 17.4 9.79 26s-16.12 9.44-27.69 2.06l-6.85-4.38-10.56 16.54-9.05-5.77Zm4.34 13.14-8.5 13.31 7.56 4.82c5.62 3.59 10.38 3 13-1.08s1.15-8.64-4.47-12.23ZM468.78 170.85l4.72 9.65-21.16 10.33 30.07 7.93 5.92 12.12-32.33-8.53L441.71 236l-5.93-12.13 13.4-31.45-23.18 11.3-4.71-9.65ZM496 245.19l1.63 10.61-52.28 8-1.63-10.61ZM499.52 293.94l-1.2 10.66-43.89-4.94-2.43 21.63-8.69-1L447 288ZM485.79 360l-4.42 9.78-40.23-18.2-9 19.83-8-3.6 13.4-29.61ZM452.16 419.08l-22.22 23.83-6.39-6 14.89-16-9.25-8.63-14.43 15.49-6.39-6 14.42-15.48-10.26-9.57-15.32 16.44-6.39-6L413.45 383ZM398 467.34l-15.23 7.78c-12.21 6.25-22.51 4.8-27.15-4.28-3.11-6.07-2-12.26 2.85-17.48l-20.12-14.93 10.1-5.17 18.43 13.65 1.16-.59 5.67-2.9-9.35-18.29 9.55-4.89Zm-13.54-2.9-6.77-13.24-6.42 3.28c-5.94 3-8 7-5.83 11.33s6.67 4.95 12.6 1.91ZM284.22 500.09l-17-1.39c-13.68-1.12-21.68-7.77-20.85-17.94.56-6.8 4.79-11.45 11.64-13.36l-9.25-23.29L260 445l8.49 21.31 1.3.11 6.34.52 1.67-20.48 10.7.88Zm-10-9.58 1.22-14.83-7.19-.59c-6.65-.54-10.53 1.76-10.92 6.57s3.06 7.71 9.71 8.26ZM175.08 440.93c6.82-13.47 21.53-19.61 35-12.78s17.24 22.3 10.42 35.78-21.53 19.6-35 12.78-17.24-22.3-10.42-35.78Zm35.57 18c5.26-10.4 2.87-19.26-4.52-23s-15.94-.42-21.2 10-2.88 19.25 4.51 23 15.94.41 21.21-9.99ZM132.21 438.54l-12.41-14.31c-9-10.37-9.07-18.31-2-24.49 4.75-4.12 11.08-2.2 15.45 1.32l.18-.15c-5.11-6.94-5.35-13.43.15-18.2 7.24-6.28 16.3-4.49 25 5.53l13.56 15.65Zm-.43-13.84 9.39-8.13-5.78-6.66c-4-4.64-7.18-4.54-10-2.08S122 413.41 126 418Zm16-13.86 10.78-9.34-6.23-7.18c-4.72-5.45-8.5-5.83-11.92-2.86s-3.58 6.75 1.14 12.2ZM95.4 317.9c14.36-4.67 29.09 1.42 33.76 15.78s-3.64 28-18 32.63-29.09-1.42-33.76-15.78 3.6-27.95 18-32.63Zm12.34 37.91c11.08-3.6 15.67-11.55 13.11-19.42s-10.95-11.6-22-8S83.14 340 85.71 347.83s10.95 11.59 22.03 7.98ZM76.88 266.89l44.1 2.38-.58 10.73-44.1-2.4-.89 16.46-8.73-.47L69.05 250l8.72.48ZM108 231.43l4.43-10.2c6 1.94 12-1 14.76-7.22 2.29-5.27 1.91-10.37-2-12-3.37-1.47-6.27 1-10.46 6.57l-5 6.76c-5.85 7.91-12.44 10.57-19.19 7.63-8.37-3.63-10.81-14.38-6.26-24.86 5.5-12.66 15.12-16.34 23.86-13.55l-4.43 10.2c-6-1.87-9.7 2.89-11.41 6.83-2.11 4.85-1.58 9.42 1.79 10.89 3 1.28 5.17-.93 9.4-6.62l5-6.76c6.25-8.41 13.38-10.41 20.27-7.41 8.87 3.85 11 15.3 6.23 26.27-5.65 12.96-18.25 16.19-26.99 13.47Z" class="cls-2"/><circle cx="283.46" cy="280.46" r="11.34" class="cls-2" transform="rotate(-15 283.455 280.46)"/><circle cx="283.99" cy="209.76" r="11.34" class="cls-2" transform="rotate(-15 283.994 209.748)"/><circle cx="348.68" cy="319.8" r="11.34" class="cls-2" transform="rotate(-60 348.681 319.807)"/><circle cx="218.86" cy="319.8" r="11.34" class="cls-2" transform="rotate(-30 218.868 319.806)"/></svg>